<svg height="512" viewBox="0 0 128 128" width="512" xmlns="http://www.w3.org/2000/svg"><g id="Circle_Grid" data-name="Circle Grid"><circle cx="64" cy="64" fill="#2cbfae" r="64"/></g><g id="icon"><path d="m78.051 35.281c-.468-6.381-6.571-11.44-14.051-11.44s-13.583 5.059-14.051 11.44z" fill="#eeefee"/><path d="m46.847 38.431h34.306v57.964h-34.306z" fill="#eeefee"/><path d="m81.153 50.844h11.104v45.556h-11.104z" fill="#eeefee"/><path d="m92.257 67.989h10.347v28.411h-10.347z" fill="#eeefee"/><path d="m35.743 50.844h11.104v45.556h-11.104z" fill="#eeefee"/><path d="m25.396 67.989h10.347v28.411h-10.347z" fill="#eeefee"/><path d="m49.903 42.297h28.148v7.372h-28.148z" fill="#69b0ee"/><path d="m49.903 53.376h28.148v7.372h-28.148z" fill="#69b0ee"/><path d="m49.903 64.455h28.148v7.372h-28.148z" fill="#69b0ee"/><path d="m83.251 53.376h6.901v6.013h-6.901z" fill="#69b0ee"/><path d="m83.251 61.98h6.901v6.013h-6.901z" fill="#69b0ee"/><path d="m83.251 70.585h6.901v6.013h-6.901z" fill="#69b0ee"/><path d="m83.251 79.189h6.901v6.013h-6.901z" fill="#69b0ee"/><path d="m83.251 87.793h6.901v6.013h-6.901z" fill="#69b0ee"/><path d="m93.978 70.585h6.901v6.013h-6.901z" fill="#69b0ee"/><path d="m93.978 79.189h6.901v6.013h-6.901z" fill="#69b0ee"/><path d="m93.978 87.793h6.901v6.013h-6.901z" fill="#69b0ee"/><path d="m37.848 53.376h6.901v6.013h-6.901z" fill="#69b0ee"/><path d="m37.848 61.98h6.901v6.013h-6.901z" fill="#69b0ee"/><path d="m37.848 70.585h6.901v6.013h-6.901z" fill="#69b0ee"/><path d="m37.848 79.189h6.901v6.013h-6.901z" fill="#69b0ee"/><path d="m37.848 87.793h6.901v6.013h-6.901z" fill="#69b0ee"/><path d="m27.121 70.585h6.901v6.013h-6.901z" fill="#69b0ee"/><path d="m27.121 79.189h6.901v6.013h-6.901z" fill="#69b0ee"/><path d="m27.121 87.793h6.901v6.013h-6.901z" fill="#69b0ee"/><path d="m49.164 34.765h29.673v3.665h-29.673z" fill="#dbd8dd"/><path d="m55.964 76.598h16.126v19.797h-16.126z" fill="#575b6d"/><path d="m23.385 96.149h81.229v3.351h-81.229z" fill="#575b6d"/><g fill="#eeefee"><path d="m94.892 93.807h-.35l3.217-6.014h.35z" opacity=".5"/><path d="m97.089 93.807h-1.176l3.217-6.014h1.176z" opacity=".5"/><path d="m94.892 85.201h-.35l3.217-6.013h.35z" opacity=".5"/><path d="m97.089 85.201h-1.176l3.217-6.013h1.176z" opacity=".5"/><path d="m94.892 76.596h-.35l3.217-6.013h.35z" opacity=".5"/><path d="m97.089 76.596h-1.176l3.217-6.013h1.176z" opacity=".5"/><path d="m84.17 59.389h-.351l3.217-6.013h.351z" opacity=".5"/><path d="m86.366 59.389h-1.175l3.217-6.013h1.175z" opacity=".5"/><path d="m38.764 59.389h-.351l3.217-6.013h.351z" opacity=".5"/><path d="m40.96 59.389h-1.175l3.217-6.013h1.175z" opacity=".5"/><path d="m38.764 67.994h-.351l3.217-6.014h.351z" opacity=".5"/><path d="m40.96 67.994h-1.175l3.217-6.014h1.175z" opacity=".5"/><path d="m38.764 76.598h-.351l3.217-6.013h.351z" opacity=".5"/><path d="m40.96 76.598h-1.175l3.217-6.013h1.175z" opacity=".5"/><path d="m38.764 85.202h-.351l3.217-6.013h.351z" opacity=".5"/><path d="m40.96 85.202h-1.175l3.217-6.013h1.175z" opacity=".5"/><path d="m38.764 93.807h-.351l3.217-6.014h.351z" opacity=".5"/><path d="m40.96 93.807h-1.175l3.217-6.014h1.175z" opacity=".5"/><path d="m28.04 93.807h-.351l3.217-6.014h.351z" opacity=".5"/><path d="m30.236 93.807h-1.175l3.217-6.014h1.175z" opacity=".5"/><path d="m28.04 85.201h-.351l3.217-6.013h.351z" opacity=".5"/><path d="m30.236 85.201h-1.175l3.217-6.013h1.175z" opacity=".5"/><path d="m28.04 76.596h-.351l3.217-6.013h.351z" opacity=".5"/><path d="m30.236 76.596h-1.175l3.217-6.013h1.175z" opacity=".5"/><path d="m84.17 67.994h-.351l3.217-6.014h.351z" opacity=".5"/><path d="m86.366 67.994h-1.175l3.217-6.014h1.175z" opacity=".5"/><path d="m57.247 60.748h-1.035l9.498-7.372h1.035z" opacity=".5"/><path d="m63.731 60.748h-3.47l9.497-7.372h3.471z" opacity=".5"/><path d="m57.247 49.669h-1.035l9.498-7.372h1.035z" opacity=".5"/><path d="m63.731 49.669h-3.47l9.497-7.372h3.471z" opacity=".5"/><path d="m57.247 71.827h-1.035l9.498-7.372h1.035z" opacity=".5"/><path d="m63.731 71.827h-3.47l9.497-7.372h3.471z" opacity=".5"/><path d="m84.17 76.598h-.351l3.217-6.013h.351z" opacity=".5"/><path d="m86.366 76.598h-1.175l3.217-6.013h1.175z" opacity=".5"/><path d="m84.17 85.202h-.351l3.217-6.013h.351z" opacity=".5"/><path d="m86.366 85.202h-1.175l3.217-6.013h1.175z" opacity=".5"/><path d="m84.17 93.807h-.351l3.217-6.014h.351z" opacity=".5"/><path d="m86.366 93.807h-1.175l3.217-6.014h1.175z" opacity=".5"/><path d="m65.735 27.458h-3.47l1.422-10.958h.626z"/></g></g></svg>