<?xml version="1.0" encoding="UTF-8" standalone="no"?>
<svg
   xmlns:dc="http://purl.org/dc/elements/1.1/"
   xmlns:cc="http://creativecommons.org/ns#"
   xmlns:rdf="http://www.w3.org/1999/02/22-rdf-syntax-ns#"
   xmlns:svg="http://www.w3.org/2000/svg"
   xmlns="http://www.w3.org/2000/svg"
   xmlns:sodipodi="http://sodipodi.sourceforge.net/DTD/sodipodi-0.dtd"
   xmlns:inkscape="http://www.inkscape.org/namespaces/inkscape"
   width="120"
   height="50"
   viewBox="0 0 31.749999 13.229167"
   version="1.1"
   id="svg8"
   inkscape:version="1.0.1 (3bc2e813f5, 2020-09-07)"
   sodipodi:docname="logo.svg">
  <defs
     id="defs2" />
  <sodipodi:namedview
     id="base"
     pagecolor="#ffffff"
     bordercolor="#666666"
     borderopacity="1.0"
     inkscape:pageopacity="0.0"
     inkscape:pageshadow="2"
     inkscape:zoom="4.012831"
     inkscape:cx="105.53251"
     inkscape:cy="29.788581"
     inkscape:document-units="mm"
     inkscape:current-layer="layer1"
     inkscape:document-rotation="0"
     showgrid="false"
     units="px"
     inkscape:snap-text-baseline="false"
     inkscape:snap-center="false"
     inkscape:window-width="1527"
     inkscape:window-height="995"
     inkscape:window-x="164"
     inkscape:window-y="17"
     inkscape:window-maximized="0" />
  <metadata
     id="metadata5">
    <rdf:RDF>
      <cc:Work
         rdf:about="">
        <dc:format>image/svg+xml</dc:format>
        <dc:type
           rdf:resource="http://purl.org/dc/dcmitype/StillImage" />
        <dc:title />
      </cc:Work>
    </rdf:RDF>
  </metadata>
  <g
     inkscape:label="Layer 1"
     inkscape:groupmode="layer"
     id="layer1">
    <g
       id="g196"
       transform="matrix(0.02532284,0,0,0.02532284,1.341189,0.04698931)">
      <g
         id="g121">
        <circle
           style="fill:#f3e8d6"
           cx="399.10001"
           cy="391.98801"
           r="112.9"
           id="circle117" />
        <circle
           style="fill:#f3e8d6"
           cx="399.10001"
           cy="391.98801"
           r="112.9"
           id="circle119" />
      </g>
      <path
         style="fill:#e5d8c6"
         d="m 458.001,295.652 c 10.508,17.149 16.569,37.317 16.569,58.903 0,62.354 -50.548,112.902 -112.902,112.902 -21.586,0 -41.754,-6.061 -58.903,-16.569 19.846,32.388 55.564,53.999 96.332,53.999 62.355,0 112.903,-50.548 112.903,-112.902 0,-40.769 -21.611,-76.488 -53.999,-96.333 z"
         id="path123" />
      <path
         style="fill:#fff9f0"
         d="m 391.372,279.35 v 225.267 c 2.554,0.173 5.129,0.268 7.726,0.268 2.598,0 5.173,-0.096 7.726,-0.268 V 279.35 c -2.554,-0.173 -5.129,-0.268 -7.726,-0.268 -2.598,0.001 -5.172,0.095 -7.726,0.268 z"
         id="path125" />
      <path
         style="fill:#e1effb"
         d="m 28.905,413.039 v 0 c -38.54,-38.54 -38.54,-101.026 0,-139.566 L 266.361,36.017 c 38.54,-38.54 101.026,-38.54 139.566,0 v 0 c 38.54,38.54 38.54,101.026 0,139.566 L 168.471,413.039 c -38.54,38.539 -101.026,38.539 -139.566,0 z"
         id="path127" />
      <path
         style="fill:#caddea"
         d="m 405.927,36.017 v 0 c -6.169,-6.169 -12.954,-11.346 -20.154,-15.54 22.007,37.779 16.831,87.041 -15.54,119.412 L 132.777,377.345 c -32.371,32.371 -81.633,37.547 -119.412,15.54 4.194,7.2 9.371,13.985 15.54,20.154 v 0 c 38.54,38.54 101.026,38.54 139.566,0 L 405.927,175.583 c 38.54,-38.541 38.54,-101.026 0,-139.566 z"
         id="path129" />
      <path
         style="fill:#65db57"
         d="m 405.927,36.017 v 0 c -38.54,-38.54 -101.026,-38.54 -139.566,0 L 147.656,154.722 287.222,294.288 405.927,175.583 c 38.54,-38.541 38.54,-101.026 0,-139.566 z"
         id="path131" />
      <path
         style="fill:#01c61b"
         d="m 427.606,142.936 c 0.602,-1.485 1.167,-2.982 1.694,-4.489 1.581,-4.521 2.823,-9.134 3.726,-13.799 0.301,-1.555 0.565,-3.116 0.79,-4.682 0.452,-3.131 0.753,-6.279 0.903,-9.433 1.28,-26.81 -8.318,-54.043 -28.792,-74.517 v 0 c -0.703,-0.703 -1.415,-1.389 -2.134,-2.065 -0.211,-0.199 -0.425,-0.394 -0.637,-0.591 -0.532,-0.493 -1.067,-0.979 -1.607,-1.458 -0.219,-0.194 -0.439,-0.389 -0.659,-0.581 -0.625,-0.544 -1.255,-1.079 -1.89,-1.605 -0.114,-0.094 -0.226,-0.191 -0.34,-0.284 -0.793,-0.651 -1.594,-1.288 -2.402,-1.91 -0.033,-0.025 -0.066,-0.049 -0.099,-0.074 -0.762,-0.584 -1.531,-1.155 -2.305,-1.714 -0.129,-0.093 -0.259,-0.185 -0.388,-0.278 -0.736,-0.526 -1.478,-1.042 -2.225,-1.546 -0.077,-0.052 -0.153,-0.104 -0.23,-0.156 -1.718,-1.151 -3.464,-2.244 -5.236,-3.276 l -10e-4,-0.001 c 22.007,37.779 16.831,87.041 -15.54,119.412 l -118.706,118.705 35.694,35.694 118.705,-118.705 c 9.635,-9.636 16.861,-20.767 21.679,-32.647 z"
         id="path133" />
      <g
         id="g135" />
      <g
         id="g137" />
      <g
         id="g139" />
      <g
         id="g141" />
      <g
         id="g143" />
      <g
         id="g145" />
      <g
         id="g147" />
      <g
         id="g149" />
      <g
         id="g151" />
      <g
         id="g153" />
      <g
         id="g155" />
      <g
         id="g157" />
      <g
         id="g159" />
      <g
         id="g161" />
      <g
         id="g163" />
    </g>
    <text
       xml:space="preserve"
       style="font-style:normal;font-weight:normal;font-size:10.5833px;line-height:1.25;font-family:sans-serif;fill:#000000;fill-opacity:1;stroke:none;stroke-width:0.264583"
       x="14.936328"
       y="5.3107281"
       id="text1023"><tspan
         sodipodi:role="line"
         id="tspan1021"
         x="14.936328"
         y="5.3107281"
         style="stroke-width:0.264583" /></text>
    <text
       xml:space="preserve"
       style="font-style:normal;font-variant:normal;font-weight:normal;font-stretch:normal;font-size:6.43172px;line-height:1.25;font-family:'Reggae One';-inkscape-font-specification:'Reggae One, Normal';font-variant-ligatures:normal;font-variant-caps:normal;font-variant-numeric:normal;font-variant-east-asian:normal;fill:#333333;fill-opacity:1;stroke:none;stroke-width:0.160793"
       x="0.93336761"
       y="9.2281227"
       id="text54"><tspan
         sodipodi:role="line"
         id="tspan52"
         x="0.93336761"
         y="9.2281227"
         style="font-style:normal;font-variant:normal;font-weight:normal;font-stretch:normal;font-size:6.43172px;font-family:'Reggae One';-inkscape-font-specification:'Reggae One, Normal';font-variant-ligatures:normal;font-variant-caps:normal;font-variant-numeric:normal;font-variant-east-asian:normal;fill:#333333;stroke-width:0.160793">AntiDrug</tspan></text>
    <text
       xml:space="preserve"
       style="font-style:normal;font-variant:normal;font-weight:normal;font-stretch:normal;font-size:2.80868px;line-height:1.25;font-family:Vemana2000;-inkscape-font-specification:'Vemana2000, Normal';font-variant-ligatures:normal;font-variant-caps:normal;font-variant-numeric:normal;font-variant-east-asian:normal;fill:#333333;fill-opacity:1;stroke:none;stroke-width:0.0702171"
       x="21.557688"
       y="12.78676"
       id="text58"><tspan
         sodipodi:role="line"
         id="tspan56"
         x="21.557688"
         y="12.78676"
         style="font-style:normal;font-variant:normal;font-weight:normal;font-stretch:normal;font-size:2.80868px;font-family:Vemana2000;-inkscape-font-specification:'Vemana2000, Normal';font-variant-ligatures:normal;font-variant-caps:normal;font-variant-numeric:normal;font-variant-east-asian:normal;fill:#333333;stroke-width:0.0702171">@彰化</tspan></text>
  </g>
</svg>
